<?xml version="1.0" standalone="no"?>
<!DOCTYPE svg PUBLIC "-//W3C//DTD SVG 20010904//EN"
 "http://www.w3.org/TR/2001/REC-SVG-20010904/DTD/svg10.dtd">
<svg version="1.0" xmlns="http://www.w3.org/2000/svg"
 width="260.000000pt" height="260.000000pt" viewBox="0 0 260.000000 260.000000"
 preserveAspectRatio="xMidYMid meet">
<metadata>
Created by potrace 1.14, written by Peter Selinger 2001-2017
</metadata>
<g transform="translate(0.000000,260.000000) scale(0.100000,-0.100000)"
fill="#000000" stroke="none">
<path d="M705 2128 c-8 -47 -8 -44 -23 -103 -5 -22 -13 -52 -16 -67 l-6 -28
85 0 c47 0 85 -4 85 -9 0 -11 -68 -312 -111 -490 -85 -353 -89 -440 -26 -550
115 -201 374 -213 668 -31 l78 49 -6 -32 c-3 -18 -10 -40 -15 -49 -5 -10 -6
-18 -4 -18 3 0 1 -11 -4 -25 l-10 -25 226 0 c171 0 226 3 228 13 2 6 15 60 28
120 l25 107 -89 0 c-86 0 -88 1 -84 23 4 21 88 375 122 516 9 36 18 73 20 84
2 10 6 27 9 37 3 10 7 27 9 37 2 10 18 79 36 153 32 136 37 155 44 188 5 22
26 101 32 125 5 16 -9 17 -237 15 l-242 -3 -27 -117 -27 -118 105 0 105 0 -7
-32 c-4 -18 -9 -40 -11 -48 -2 -8 -18 -76 -35 -150 -39 -166 -34 -143 -65
-275 -14 -60 -33 -143 -42 -183 l-17 -73 -90 -60 c-147 -99 -232 -136 -325
-144 -90 -8 -157 45 -164 131 -3 31 6 87 39 254 3 14 14 59 24 100 10 41 35
147 55 235 37 165 102 437 111 468 5 16 -10 17 -219 17 l-224 0 -8 -42z"/>
<path d="M422 517 c-31 -33 -29 -80 4 -106 27 -21 33 -21 821 -21 l794 0 23
25 c30 33 29 81 -3 106 -22 18 -59 19 -820 19 l-798 0 -21 -23z"/>
</g>
</svg>
